<svg xmlns="http://www.w3.org/2000/svg" viewBox="0 0 512 512" width="512" height="512">
  <defs>
    <linearGradient id="gradient" x1="0%" y1="0%" x2="100%" y2="100%">
      <stop offset="0%" style="stop-color:#ff6b35;stop-opacity:1" />
      <stop offset="100%" style="stop-color:#ff4757;stop-opacity:1" />
    </linearGradient>
  </defs>
  
  <!-- Background circle -->
  <circle cx="256" cy="256" r="240" fill="url(#gradient)" stroke="#fff" stroke-width="16"/>
  
  <!-- Dumbbell icon -->
  <g fill="#fff">
    <!-- Left weight -->
    <rect x="80" y="200" width="40" height="112" rx="20" ry="20"/>
    <rect x="70" y="180" width="60" height="152" rx="30" ry="30"/>
    
    <!-- Right weight -->
    <rect x="392" y="200" width="40" height="112" rx="20" ry="20"/>
    <rect x="362" y="180" width="60" height="152" rx="30" ry="30"/>
    
    <!-- Bar -->
    <rect x="120" y="236" width="272" height="40" rx="20" ry="20"/>
    
    <!-- Grip marks -->
    <rect x="200" y="246" width="4" height="20" rx="2"/>
    <rect x="210" y="246" width="4" height="20" rx="2"/>
    <rect x="220" y="246" width="4" height="20" rx="2"/>
    <rect x="288" y="246" width="4" height="20" rx="2"/>
    <rect x="298" y="246" width="4" height="20" rx="2"/>
    <rect x="308" y="246" width="4" height="20" rx="2"/>
  </g>
  
  <!-- Muscle/strength accent -->
  <g fill="#fff" opacity="0.3">
    <circle cx="180" cy="150" r="12"/>
    <circle cx="332" cy="150" r="12"/>
    <circle cx="180" cy="362" r="12"/>
    <circle cx="332" cy="362" r="12"/>
  </g>
</svg>